<svg width="104.000000" height="26.000000" viewBox="0 0 104 26" fill="none" xmlns="http://www.w3.org/2000/svg" xmlns:xlink="http://www.w3.org/1999/xlink">
	<desc>
			Created with Pixso.
	</desc>
	<defs>
		<clipPath id="clip1_3164">
			<rect id="Logo" width="104.000000" height="26.000000" fill="white" fill-opacity="0"/>
		</clipPath>
	</defs>
	<g clip-path="url(#clip1_3164)">
		<path id="Vector" d="M103.839 20.0569C99.4927 27.4253 92.6101 25.2871 90.543 23.6133C89.6633 24.2102 88.1206 25.5183 86.0635 25.3674C81.6829 25.0459 80.114 18.7856 80.114 18.7856C80.1455 18.8105 78.8093 19.2468 78.0869 19.239C78.0776 21.0747 76.4905 25.4602 72.2078 25.4043C67.4019 25.3416 66.4248 18.1814 66.4248 18.1814C66.4248 18.1814 65.9463 18.8455 64.1279 19.5068C64.2195 18.0964 64.1526 25.1895 58.3923 25.2937C53.8386 25.3762 52.6091 18.071 52.6091 18.071C52.6091 18.071 51.8191 18.8916 50.2883 19.1763C50.3855 17.7429 50.2273 25.3179 44.4663 25.2937C40.5732 25.2776 39.2429 20.7937 39.3464 20.1714C39.4785 19.3782 38.0305 25.4053 34.249 25.3115C32.6885 25.2654 31.5249 24.1357 30.7949 22.6292C29.8176 23.7476 28.3987 25.3115 26.8069 25.3115C23.9497 25.3115 22.6899 22.9216 22.9033 16.0959C22.9214 15.2864 22.863 14.9678 22.0583 14.8467C21.5754 14.7664 21.0806 14.6135 20.5574 14.5332C20.3896 15.093 18.9666 25.1292 14.0737 25.3196C12.4324 25.3838 11.5349 23.9619 10.7979 22.9062C9.66797 24.4011 8.17627 25.3674 6.05151 25.3674C2.45239 25.3674 0 22.4578 0 18.8684C0 15.2791 2.45239 12.3696 6.05151 12.3696C6.68799 12.3696 6.86646 12.4609 7.448 12.6306C6.2522 1.74487 9.07593 0.043457 11.5459 0.043457C13.9172 0.043457 17.9685 5.54736 12.2681 19.5081C13.5337 23.6721 16.262 23.4365 17.5732 14.8647C17.8398 13.1223 17.1265 10.7708 18.2363 10.4426C20.2649 9.84277 20.4802 11.6423 21.4314 11.9421C22.437 12.259 23.0242 12.228 23.9897 12.4297C25.6396 12.752 26.2837 13.6382 26.0825 15.6123C25.8411 18.1101 25.4189 21.7456 26.7063 22.1887C27.6348 22.5105 29.3301 20.585 29.6274 19.5315C29.9248 18.478 29.9871 18.1174 30.0134 17.3447C30.0537 15.6931 30.104 14.4824 30.3857 13.2334C30.5063 12.75 30.6438 12.4302 31.1904 12.4082C31.6404 12.3967 32.4634 12.2612 32.8254 12.543C33.3083 12.9058 33.248 13.2739 33.1926 14.2427C32.6311 28.0547 36.9524 21.1597 38.241 15.6387C37.7822 9.396 38.0972 0.157715 42.0093 0.00292969C44.0439 -0.0776367 44.9434 1.55225 45.0422 2.7688C45.322 6.20483 43.7546 11.8967 41.6931 15.7244C40.5149 23.5347 46.8445 25.0789 47.8567 18.8447C46.2007 18.0574 44.4109 14.8704 45.8672 13.3171C46.6846 12.4456 50.0862 13.6978 50.1421 16.429C51.8105 15.9824 52.0334 15.0405 52.0566 15.1965C51.5977 8.95386 52.0232 0.157959 55.9355 0.00292969C57.9697 -0.0776367 58.8691 1.55225 58.968 2.7688C59.248 6.20483 57.6804 11.8967 55.6191 15.7244C54.4407 23.5347 60.7708 25.0789 61.7827 18.845C60.5564 18.6084 57.9683 15.2185 59.4617 13.3174C60.2598 12.3013 63.6489 14.4141 64.0286 16.5193C65.6316 16.0657 65.8491 15.1536 65.8721 15.3071C65.4133 9.06445 65.8386 0.268555 69.751 0.113525C71.7854 0.032959 72.6848 1.66284 72.7837 2.87964C73.0635 6.31567 71.4958 12.0076 69.4343 15.8352C68.2563 23.6455 74.5859 25.1895 75.5981 18.9553C73.9133 18.6748 71.5186 15.0957 73.4458 13.2646C74.2158 12.533 77.1582 14.4321 77.8469 16.5986C78.8037 16.5618 79.3994 16.2319 79.5271 16.1985C77.9995 8.86987 79.1367 0.076416 83.3455 0.00317383C85.6199 -0.0366211 87.844 1.23291 86.8677 8.20508C85.936 14.8574 82.5869 17.6492 82.5945 17.6919C82.7896 18.489 84.5081 25.1587 88.8359 21.6394C88.6118 21.1321 88.3875 20.6138 88.2622 19.9861C87.5449 16.3289 88.9539 12.1982 92.7834 11.5305C94.9775 11.1482 97.0442 12.2163 97.3711 14.6245C97.9087 18.5652 94.3503 21.4192 92.9973 22.0381C92.3914 21.6938 98.491 25.606 102.111 17.7661C102.321 17.3186 102.574 17.3564 102.902 17.5872C103.133 17.75 104.452 18.9995 103.839 20.0569ZM8.66968 17.9001C8.48535 17.3494 8.10742 16.1362 7.97388 15.6104C7.23755 14.9702 6.71216 14.8662 5.76733 14.8662C3.66748 14.8662 2.4314 16.8076 2.4314 18.9011C2.4314 20.9949 3.77783 22.9365 5.87793 22.9365C7.69775 22.9365 9.08276 21.6992 9.50537 19.9478C9.20947 19.2649 8.91602 18.6372 8.66968 17.9001ZM11.4944 2.92505C10.019 2.92505 9.51831 6.44482 9.61548 9.44775C9.70142 12.1025 10.4434 14.4397 10.8281 15.4868C10.9258 15.6182 10.9077 15.5327 10.9949 15.6721C13.5569 10.0586 12.4941 2.92505 11.4944 2.92505ZM42.2202 3.03564C40.313 2.81689 40.3252 10.7612 40.562 12.543C41.5525 10.9587 43.2732 3.46216 42.2202 3.03564ZM56.146 3.03564C54.239 2.81689 54.2512 10.7612 54.488 12.543C55.4783 10.9587 57.199 3.46216 56.146 3.03564ZM69.9614 3.14624C68.0544 2.92749 68.0667 10.8716 68.3035 12.6538C69.2937 11.0691 71.0144 3.57275 69.9614 3.14624ZM83.5557 2.57056C80.5845 3.16724 81.2764 13.074 81.7275 14.8113C85.2278 10.0044 85.2996 2.38989 83.5557 2.57056ZM94.6912 14.9504C94.5403 14.3188 93.7849 13.9812 93.2634 14.0645C91.7717 14.2683 90.3247 16.1262 90.8848 18.9551C91.0095 19.5852 91.3215 20.165 91.3164 20.1458C94.6553 17.9058 94.939 16.1406 94.6912 14.9504ZM31.7754 10.2214C31.3491 10.2217 30.9321 10.0952 30.5776 9.8584C30.2231 9.62158 29.9468 9.28491 29.7834 8.89087C29.6201 8.49707 29.5774 8.06348 29.6606 7.64526C29.7439 7.22705 29.949 6.84302 30.2505 6.5415C30.552 6.23999 30.9363 6.03467 31.3545 5.95142C31.7725 5.86816 32.2061 5.91089 32.6001 6.07397C32.9939 6.2373 33.3308 6.51367 33.5676 6.86816C33.8044 7.22266 33.9309 7.6394 33.9309 8.06592C33.9309 8.34888 33.875 8.62915 33.7668 8.89087C33.6584 9.15234 33.4998 9.38989 33.2996 9.59009C33.0994 9.79028 32.8618 9.94897 32.6003 10.0574C32.3389 10.1658 32.0586 10.2214 31.7754 10.2214Z" fill="#EA4C89" fill-opacity="1.000000" fill-rule="evenodd"/>
	</g>
</svg>
