<svg width="256.000000" height="31.000000" viewBox="0 0 256 31" fill="none" xmlns="http://www.w3.org/2000/svg" xmlns:xlink="http://www.w3.org/1999/xlink">
	<desc>
			Created with Pixso.
	</desc>
	<defs/>
	<path id="Vector" d="M9 8C4.03149 8 0 12.0315 0 17C0 21.9685 4.03149 26 9 26C13.9587 26 18 21.9685 18 17C18 12.0315 13.9587 8 9 8ZM14.9446 12.1487C16.0183 13.4565 16.6626 15.1257 16.6821 16.9316C16.4285 16.8828 13.8904 16.3655 11.333 16.6877C11.2744 16.5608 11.2256 16.4241 11.167 16.2874C11.0107 15.9165 10.8352 15.5359 10.6594 15.1746C13.4902 14.0227 14.7788 12.3633 14.9446 12.1487ZM9 9.32764C10.9521 9.32764 12.7385 10.0596 14.0955 11.2603C13.9587 11.4556 12.7971 13.0076 10.064 14.0325C8.80469 11.719 7.40894 9.82544 7.19409 9.53247C7.77002 9.396 8.37524 9.32764 9 9.32764ZM5.72998 10.0498C5.93506 10.3232 7.30151 12.2266 8.58032 14.4912C4.98804 15.448 1.81567 15.4285 1.47388 15.4285C1.97168 13.0466 3.58252 11.0652 5.72998 10.0498ZM1.30811 17.0098C1.30811 16.9316 1.30811 16.8535 1.30811 16.7754C1.63989 16.7852 5.36865 16.834 9.20508 15.6821C9.42944 16.1118 9.63452 16.551 9.82983 16.9902C9.73218 17.0195 9.62476 17.0488 9.5271 17.0781C5.56396 18.3567 3.45557 21.8513 3.27979 22.1443C2.05957 20.7874 1.30811 18.9817 1.30811 17.0098ZM9 24.6919C7.22339 24.6919 5.5835 24.0867 4.28516 23.0715C4.42188 22.7886 5.98364 19.782 10.3179 18.269C10.3374 18.2593 10.3472 18.2593 10.3667 18.2495C11.4502 21.051 11.8894 23.4036 12.0066 24.0769C11.0791 24.4773 10.064 24.6919 9 24.6919ZM13.2852 23.3743C13.2073 22.9055 12.7971 20.6606 11.7917 17.8979C14.2029 17.5173 16.3113 18.1421 16.575 18.23C16.2429 20.3677 15.0129 22.2126 13.2852 23.3743Z" fill="#3D3D4E" fill-opacity="1.000000" fill-rule="evenodd"/>
	<path id="Vector" d="M53.8718 11.4268C53.208 11.7185 52.4993 11.9172 51.7529 12.0081C52.5134 11.5498 53.0984 10.8276 53.3752 9.96582C52.6621 10.3821 51.8716 10.6851 51.03 10.8538C50.3579 10.1345 49.4001 9.68457 48.3367 9.68457C46.2991 9.68457 44.6467 11.3369 44.6467 13.3723C44.6467 13.6648 44.6804 13.946 44.7419 14.2153C41.6746 14.0706 38.9558 12.5977 37.1362 10.3708C36.8159 10.9124 36.6367 11.5415 36.6367 12.2271C36.6367 13.5095 37.2893 14.6367 38.2778 15.2991C37.6726 15.2795 37.1033 15.113 36.6067 14.8372L36.6067 14.8828C36.6067 16.6716 37.8765 18.1633 39.5662 18.5032C39.2566 18.5864 38.9294 18.6313 38.5942 18.6313C38.3586 18.6313 38.1331 18.6089 37.9072 18.5669C38.3806 20.0315 39.741 21.0996 41.3604 21.1296C40.1003 22.1189 38.5034 22.7083 36.7837 22.7083C36.4912 22.7083 36.1995 22.6912 35.9062 22.658C37.5481 23.7036 39.4822 24.3149 41.574 24.3149C48.3645 24.3149 52.0732 18.6929 52.0732 13.8254C52.0732 13.6685 52.0732 13.5103 52.062 13.3528C52.7827 12.8362 53.4121 12.1829 53.907 11.4419L53.8718 11.4268Z" fill="#3D3D4E" fill-opacity="1.000000" fill-rule="nonzero"/>
	<path id="Vector" d="M88.8196 8L72.8054 8C72.2573 8 71.8125 8.44482 71.8125 8.99292L71.8125 25.0071C71.8125 25.5559 72.2573 26 72.8054 26L81.426 26L81.426 19.0295L79.0793 19.0295L79.0793 16.3137L81.426 16.3137L81.426 14.3076C81.426 11.9832 82.8464 10.7188 84.9202 10.7188C85.9141 10.7188 86.7683 10.7915 87.0173 10.8245L87.0173 13.2544L85.5764 13.2544C84.4514 13.2544 84.2324 13.7952 84.2324 14.5828L84.2324 16.3159L86.9204 16.3159L86.5718 19.0386L84.2324 19.0386L84.2324 26L88.8188 26C89.3684 26 89.8125 25.5559 89.8125 25.0071L89.8125 8.99292C89.8125 8.44482 89.3684 8 88.8196 8Z" fill="#3D3D4E" fill-opacity="1.000000" fill-rule="nonzero"/>
	<path id="Vector" d="M116.719 8C114.274 8 113.968 8.01123 113.009 8.05396C112.05 8.09912 111.397 8.24976 110.824 8.47241C110.232 8.7019 109.729 9.01025 109.23 9.51099C108.729 10.0103 108.42 10.5122 108.191 11.105C107.969 11.6787 107.817 12.3313 107.773 13.2898C107.728 14.2493 107.719 14.5554 107.719 17C107.719 19.4446 107.73 19.7507 107.773 20.7102C107.818 21.6687 107.969 22.3223 108.191 22.895C108.421 23.4868 108.729 23.9897 109.23 24.489C109.729 24.9897 110.231 25.2991 110.824 25.5276C111.397 25.7502 112.05 25.9021 113.009 25.946C113.968 25.991 114.274 26 116.719 26C119.163 26 119.469 25.9888 120.429 25.946C121.387 25.9009 122.041 25.7502 122.614 25.5276C123.206 25.2981 123.708 24.9897 124.208 24.489C124.708 23.9897 125.018 23.4878 125.246 22.895C125.469 22.3213 125.621 21.6687 125.665 20.7102C125.71 19.7507 125.719 19.4446 125.719 17C125.719 14.5554 125.708 14.2493 125.665 13.2898C125.62 12.3313 125.469 11.6777 125.246 11.105C125.017 10.5132 124.708 10.0103 124.208 9.51099C123.708 9.01025 123.207 8.70093 122.614 8.47241C122.04 8.24976 121.387 8.0979 120.429 8.05396C119.469 8.00903 119.163 8 116.719 8ZM116.719 9.62012C119.122 9.62012 119.407 9.63135 120.356 9.67407C121.233 9.7146 121.709 9.86084 122.027 9.98462C122.447 10.1477 122.747 10.3423 123.062 10.6572C123.376 10.9722 123.571 11.2715 123.734 11.6921C123.858 12.0095 124.004 12.4854 124.045 13.3628C124.087 14.3123 124.098 14.5969 124.098 17C124.098 19.4031 124.086 19.6887 124.044 20.6372C124.003 21.5146 123.857 21.9905 123.733 22.3079C123.57 22.7285 123.375 23.0278 123.06 23.3428C122.745 23.6577 122.446 23.8523 122.025 24.0154C121.708 24.1392 121.232 24.2854 120.355 24.3259C119.405 24.3687 119.121 24.3789 116.718 24.3789C114.315 24.3789 114.029 24.3677 113.081 24.325C112.203 24.2844 111.727 24.1382 111.41 24.0144C110.989 23.8513 110.69 23.6567 110.375 23.3416C110.06 23.0266 109.865 22.7273 109.702 22.3066C109.578 21.9893 109.432 21.5134 109.392 20.636C109.35 19.6887 109.339 19.4031 109.339 17C109.339 14.5969 109.35 14.3113 109.393 13.3628C109.433 12.4854 109.58 12.0095 109.703 11.6921C109.866 11.2715 110.061 10.9722 110.376 10.6572C110.691 10.3423 110.99 10.1477 111.411 9.98462C111.728 9.86084 112.204 9.7146 113.082 9.67407C114.03 9.63135 114.316 9.62012 116.719 9.62012ZM116.719 12.3784C114.165 12.3784 112.097 14.4485 112.097 17C112.097 19.5537 114.167 21.6216 116.719 21.6216C119.272 21.6216 121.34 19.5515 121.34 17C121.34 14.4463 119.27 12.3784 116.719 12.3784ZM116.719 20.0005C115.062 20.0005 113.718 18.6572 113.718 17C113.718 15.3428 115.062 13.9995 116.719 13.9995C118.376 13.9995 119.719 15.3428 119.719 17C119.719 18.6572 118.376 20.0005 116.719 20.0005ZM122.603 12.1963C122.603 12.7925 122.119 13.2764 121.522 13.2764C120.926 13.2764 120.442 12.7925 120.442 12.1963C120.442 11.6001 120.926 11.1162 121.522 11.1162C122.119 11.1162 122.603 11.6001 122.603 12.1963Z" fill="#3D3D4E" fill-opacity="1.000000" fill-rule="evenodd"/>
	<path id="Vector" d="M152.638 8C147.672 8 143.647 12.0251 143.647 16.9902C143.647 20.7996 146.015 24.053 149.36 25.3618C149.281 24.6499 149.211 23.5596 149.391 22.7825C149.555 22.0798 150.446 18.3147 150.446 18.3147C150.446 18.3147 150.176 17.7747 150.176 16.979C150.176 15.7317 150.901 14.7957 151.802 14.7957C152.57 14.7957 152.941 15.3726 152.941 16.0618C152.941 16.8335 152.451 17.9871 152.197 19.0557C151.983 19.9504 152.647 20.6794 153.528 20.6794C155.124 20.6794 156.354 18.9958 156.354 16.5642C156.354 14.4185 154.807 12.9126 152.598 12.9126C150.041 12.9126 148.541 14.834 148.541 16.8118C148.541 17.5864 148.837 18.4189 149.208 18.8674C149.282 18.9575 149.292 19.0361 149.272 19.1262C149.204 19.4075 149.052 20.0254 149.021 20.1484C148.981 20.3171 148.892 20.3518 148.72 20.2722C147.599 19.7546 146.896 18.1138 146.896 16.7878C146.896 13.9558 148.957 11.3486 152.836 11.3486C155.954 11.3486 158.38 13.574 158.38 16.541C158.38 19.6423 156.424 22.1375 153.705 22.1375C152.794 22.1375 151.939 21.6658 151.636 21.1033L151.075 23.2393C150.873 24.0229 150.322 25.0032 149.951 25.5986C150.793 25.8574 151.681 26 152.614 26C157.569 26 161.603 21.9763 161.603 17.0098C161.603 12.0425 157.569 8.01953 152.614 8.01953L152.638 8Z" fill="#3D3D4E" fill-opacity="1.000000" fill-rule="nonzero"/>
</svg>
