<svg width="13.000000" height="13.000000" viewBox="0 0 13 13" fill="none" xmlns="http://www.w3.org/2000/svg" xmlns:xlink="http://www.w3.org/1999/xlink">
	<desc>
			Created with Pixso.
	</desc>
	<defs/>
	<path id="Vector" d="M0 3.25C0 2.80127 0.36377 2.4375 0.8125 2.4375L12.1875 2.4375C12.6362 2.4375 13 2.80127 13 3.25C13 3.69873 12.6362 4.0625 12.1875 4.0625L0.8125 4.0625C0.36377 4.0625 0 3.69873 0 3.25ZM1.625 6.5C1.625 6.05127 1.98877 5.6875 2.4375 5.6875L10.5625 5.6875C11.0112 5.6875 11.375 6.05127 11.375 6.5C11.375 6.94873 11.0112 7.3125 10.5625 7.3125L2.4375 7.3125C1.98877 7.3125 1.625 6.94873 1.625 6.5ZM4.0625 8.9375C3.61377 8.9375 3.25 9.30127 3.25 9.75C3.25 10.1987 3.61377 10.5625 4.0625 10.5625L8.9375 10.5625C9.38623 10.5625 9.75 10.1987 9.75 9.75C9.75 9.30127 9.38623 8.9375 8.9375 8.9375L4.0625 8.9375Z" fill="#0D0C22" fill-opacity="1.000000" fill-rule="evenodd"/>
</svg>
